# xmcd CD database file
#
# Track frame offsets:
#	150
#	15850
#	33954
#	51275
#	68135
#	87144
#	105578
#	118741
#	136949
#	153554
#	167773
#
# Disc length: 2497 seconds
#
# Revision: 0
# Processed by: cddbd v1.4PL0 Copyright (c) Steve Scherf et al.
# Submitted via: CDex 1.51
#
DISCID=8309bf0b
DTITLE=John Boutte and Uptown Okra - Carry Me Home
DYEAR=2003
DGENRE=Jazz
TTITLE0=Coo Coo Over You
TTITLE1=In the Pines
TTITLE2=No Hiding Place
TTITLE3=Mama and Papa
TTITLE4=City of New Orleans
TTITLE5=I'm a Cowboy
TTITLE6=Blue Moon of Kentucky
TTITLE7=Let's Make a Better World
TTITLE8=Freeborn Man
TTITLE9=High on a Mountain Top
TTITLE10=Gospel Medley
EXTD=YEAR: 2003
EXTT0=
EXTT1=
EXTT2=
EXTT3=
EXTT4=
EXTT5=
EXTT6=
EXTT7=
EXTT8=
EXTT9=
EXTT10=
PLAYORDER=
